Consolig-Bold.ufo
<glyph name="asciitilde_asciitilde.liga" format="2">
  <advance width="1126"/>
  <outline>
    <contour>
      <point x="644" y="502" type="curve" smooth="yes"/>
      <point x="746" y="502"/>
      <point x="760" y="581"/>
      <point x="760" y="696" type="curve"/>
      <point x="918" y="696" type="line"/>
      <point x="918" y="531"/>
      <point x="861" y="421"/>
      <point x="761" y="370" type="curve" smooth="yes"/>
      <point x="726" y="352"/>
      <point x="685" y="344"/>
      <point x="638" y="344" type="curve" smooth="yes"/>
      <point x="452" y="344"/>
      <point x="390" y="505"/>
      <point x="269" y="578" type="curve" smooth="yes"/>
      <point x="249" y="590"/>
      <point x="234" y="596"/>
      <point x="212" y="596" type="curve" smooth="yes"/>
      <point x="163" y="596"/>
      <point x="125" y="561"/>
      <point x="94" y="531" type="curve" smooth="yes"/>
      <point x="30" y="470"/>
      <point x="-30" y="397"/>
      <point x="-116" y="362" type="curve" smooth="yes"/>
      <point x="-145" y="350"/>
      <point x="-174" y="344"/>
      <point x="-210" y="344" type="curve" smooth="yes"/>
      <point x="-362" y="344"/>
      <point x="-438" y="451"/>
      <point x="-522" y="531" type="curve" smooth="yes"/>
      <point x="-555" y="562"/>
      <point x="-590" y="596"/>
      <point x="-644" y="596" type="curve" smooth="yes"/>
      <point x="-741" y="596"/>
      <point x="-760" y="512"/>
      <point x="-760" y="401" type="curve"/>
      <point x="-918" y="401" type="line"/>
      <point x="-918" y="565"/>
      <point x="-861" y="678"/>
      <point x="-762" y="728" type="curve" smooth="yes"/>
      <point x="-727" y="746"/>
      <point x="-685" y="754"/>
      <point x="-638" y="754" type="curve" smooth="yes"/>
      <point x="-452" y="754"/>
      <point x="-391" y="593"/>
      <point x="-270" y="520" type="curve" smooth="yes"/>
      <point x="-250" y="508"/>
      <point x="-235" y="502"/>
      <point x="-213" y="502" type="curve" smooth="yes"/>
      <point x="-165" y="502"/>
      <point x="-128" y="538"/>
      <point x="-97" y="567" type="curve" smooth="yes"/>
      <point x="-15" y="646"/>
      <point x="62" y="754"/>
      <point x="212" y="754" type="curve" smooth="yes"/>
      <point x="398" y="754"/>
      <point x="459" y="593"/>
      <point x="580" y="520" type="curve" smooth="yes"/>
      <point x="600" y="508"/>
      <point x="622" y="502"/>
    </contour>
  </outline>
</glyph>
<glyph name="braceleft_bar.liga" format="2">
  <advance width="1126"/>
  <outline>
    <contour>
      <point x="-543" y="1083" type="line" smooth="yes"/>
      <point x="-543" y="1332"/>
      <point x="-414" y="1448"/>
      <point x="-162" y="1448" type="curve" smooth="yes"/>
      <point x="504" y="1448" type="line"/>
      <point x="504" y="-410" type="line"/>
      <point x="-162" y="-410" type="line" smooth="yes"/>
      <point x="-415" y="-410"/>
      <point x="-543" y="-296"/>
      <point x="-543" y="-45" type="curve" smooth="yes"/>
      <point x="-543" y="299" type="line" smooth="yes"/>
      <point x="-543" y="452"/>
      <point x="-624" y="506"/>
      <point x="-780" y="506" type="curve" smooth="yes"/>
      <point x="-823" y="506" type="line"/>
      <point x="-823" y="645" type="line"/>
      <point x="-780" y="645" type="line" smooth="yes"/>
      <point x="-660" y="645"/>
      <point x="-578" y="666"/>
      <point x="-553" y="756" type="curve" smooth="yes"/>
      <point x="-546" y="781"/>
      <point x="-543" y="811"/>
      <point x="-543" y="846" type="curve" smooth="yes"/>
    </contour>
    <contour>
      <point x="340" y="1308" type="line"/>
      <point x="-147" y="1308" type="line" smooth="yes"/>
      <point x="-302" y="1308"/>
      <point x="-379" y="1233"/>
      <point x="-379" y="1083" type="curve" smooth="yes"/>
      <point x="-379" y="850" type="line" smooth="yes"/>
      <point x="-379" y="687"/>
      <point x="-449" y="596"/>
      <point x="-590" y="575" type="curve"/>
      <point x="-448" y="575"/>
      <point x="-377" y="470"/>
      <point x="-377" y="301" type="curve" smooth="yes"/>
      <point x="-377" y="-41" type="line" smooth="yes"/>
      <point x="-377" y="-194"/>
      <point x="-300" y="-270"/>
      <point x="-147" y="-270" type="curve" smooth="yes"/>
      <point x="340" y="-270" type="line"/>
    </contour>
  </outline>
</glyph>
<glyph name="equal_exclam_equal.liga" format="2">
  <advance width="1126"/>
  <outline>
    <contour>
      <point x="-460" y="1413" type="line"/>
      <point x="-487" y="383" type="line"/>
      <point x="-641" y="383" type="line"/>
      <point x="-671" y="1413" type="line"/>
    </contour>
    <contour>
      <point x="-698" y="113" type="curve" smooth="yes"/>
      <point x="-698" y="189"/>
      <point x="-641" y="246"/>
      <point x="-565" y="246" type="curve" smooth="yes"/>
      <point x="-490" y="246"/>
      <point x="-434" y="188"/>
      <point x="-434" y="113" type="curve" smooth="yes"/>
      <point x="-434" y="38"/>
      <point x="-490" y="-18"/>
      <point x="-565" y="-18" type="curve" smooth="yes"/>
      <point x="-640" y="-18"/>
      <point x="-698" y="38"/>
    </contour>
    <contour>
      <point x="-1837" y="646" type="line"/>
      <point x="-1837" y="793" type="line"/>
      <point x="-953" y="793" type="line"/>
      <point x="-953" y="646" type="line"/>
    </contour>
    <contour>
      <point x="-1837" y="298" type="line"/>
      <point x="-1837" y="445" type="line"/>
      <point x="-953" y="445" type="line"/>
      <point x="-953" y="298" type="line"/>
    </contour>
    <contour>
      <point x="711" y="646" type="line"/>
      <point x="-179" y="646" type="line"/>
      <point x="-179" y="793" type="line"/>
      <point x="711" y="793" type="line"/>
    </contour>
    <contour>
      <point x="711" y="298" type="line"/>
      <point x="-179" y="298" type="line"/>
      <point x="-179" y="445" type="line"/>
      <point x="711" y="445" type="line"/>
    </contour>
  </outline>
</glyph>
<glyph name="equal_slash_equal.liga" format="2">
  <advance width="1126"/>
  <outline>
    <contour>
      <point x="711" y="445" type="line"/>
      <point x="711" y="298" type="line"/>
      <point x="-629" y="298" type="line"/>
      <point x="-845" y="-215" type="line"/>
      <point x="-1011" y="-215" type="line"/>
      <point x="-795" y="298" type="line"/>
      <point x="-1837" y="298" type="line"/>
      <point x="-1837" y="445" type="line"/>
      <point x="-733" y="445" type="line"/>
      <point x="-648" y="646" type="line"/>
      <point x="-1837" y="646" type="line"/>
      <point x="-1837" y="793" type="line"/>
      <point x="-586" y="793" type="line"/>
      <point x="-370" y="1306" type="line"/>
      <point x="-204" y="1306" type="line"/>
      <point x="-420" y="793" type="line"/>
      <point x="711" y="793" type="line"/>
      <point x="711" y="646" type="line"/>
      <point x="-482" y="646" type="line"/>
      <point x="-567" y="445" type="line"/>
    </contour>
  </outline>
</glyph>
<glyph name="exclam_exclam_period.liga" format="2">
  <advance width="1126"/>
  <outline>
    <contour>
      <point x="384" y="1413" type="line"/>
      <point x="357" y="383" type="line"/>
      <point x="203" y="383" type="line"/>
      <point x="173" y="1413" type="line"/>
    </contour>
    <contour>
      <point x="146" y="113" type="curve" smooth="yes"/>
      <point x="146" y="189"/>
      <point x="203" y="246"/>
      <point x="279" y="246" type="curve" smooth="yes"/>
      <point x="354" y="246"/>
      <point x="410" y="188"/>
      <point x="410" y="113" type="curve" smooth="yes"/>
      <point x="410" y="38"/>
      <point x="354" y="-18"/>
      <point x="279" y="-18" type="curve" smooth="yes"/>
      <point x="204" y="-18"/>
      <point x="146" y="38"/>
    </contour>
    <contour>
      <point x="-1304" y="1413" type="line"/>
      <point x="-1331" y="383" type="line"/>
      <point x="-1485" y="383" type="line"/>
      <point x="-1515" y="1413" type="line"/>
    </contour>
    <contour>
      <point x="-1542" y="113" type="curve" smooth="yes"/>
      <point x="-1542" y="189"/>
      <point x="-1485" y="246"/>
      <point x="-1409" y="246" type="curve" smooth="yes"/>
      <point x="-1334" y="246"/>
      <point x="-1278" y="188"/>
      <point x="-1278" y="113" type="curve" smooth="yes"/>
      <point x="-1278" y="38"/>
      <point x="-1334" y="-18"/>
      <point x="-1409" y="-18" type="curve" smooth="yes"/>
      <point x="-1484" y="-18"/>
      <point x="-1542" y="38"/>
    </contour>
    <contour>
      <point x="-460" y="1413" type="line"/>
      <point x="-487" y="383" type="line"/>
      <point x="-641" y="383" type="line"/>
      <point x="-671" y="1413" type="line"/>
    </contour>
    <contour>
      <point x="-698" y="113" type="curve" smooth="yes"/>
      <point x="-698" y="189"/>
      <point x="-641" y="246"/>
      <point x="-565" y="246" type="curve" smooth="yes"/>
      <point x="-490" y="246"/>
      <point x="-434" y="188"/>
      <point x="-434" y="113" type="curve" smooth="yes"/>
      <point x="-434" y="38"/>
      <point x="-490" y="-18"/>
      <point x="-565" y="-18" type="curve" smooth="yes"/>
      <point x="-640" y="-18"/>
      <point x="-698" y="38"/>
    </contour>
  </outline>
</glyph>
<glyph name="four.numr" format="2">
  <advance width="1126"/>
  <outline>
    <contour>
      <point x="920" y="776" type="line"/>
      <point x="784" y="776" type="line"/>
      <point x="784" y="631" type="line"/>
      <point x="623" y="631" type="line"/>
      <point x="623" y="776" type="line"/>
      <point x="211" y="776" type="line"/>
      <point x="211" y="920" type="line"/>
      <point x="555" y="1413" type="line"/>
      <point x="784" y="1413" type="line"/>
      <point x="784" y="926" type="line"/>
      <point x="920" y="926" type="line"/>
    </contour>
    <contour>
      <point x="627" y="1274" type="line"/>
      <point x="385" y="926" type="line"/>
      <point x="627" y="926" type="line"/>
    </contour>
  </outline>
</glyph>
<glyph name="greater_greater_equal.liga" format="2">
  <advance width="1126"/>
  <outline>
    <contour>
      <point x="-1761" y="995" type="line"/>
      <point x="-1653" y="1106" type="line"/>
      <point x="-981" y="545" type="line"/>
      <point x="-1653" y="-16" type="line"/>
      <point x="-1761" y="94" type="line"/>
      <point x="-1216" y="543" type="line"/>
    </contour>
    <contour>
      <point x="-1198" y="995" type="line"/>
      <point x="-1090" y="1106" type="line"/>
      <point x="-715" y="793" type="line"/>
      <point x="711" y="793" type="line"/>
      <point x="711" y="646" type="line"/>
      <point x="-539" y="646" type="line"/>
      <point x="-418" y="545" type="line"/>
      <point x="-538" y="445" type="line"/>
      <point x="711" y="445" type="line"/>
      <point x="711" y="298" type="line"/>
      <point x="-714" y="298" type="line"/>
      <point x="-1090" y="-16" type="line"/>
      <point x="-1198" y="94" type="line"/>
      <point x="-653" y="543" type="line"/>
    </contour>
  </outline>
</glyph>
<glyph name="less_equal.liga" format="2">
  <advance width="1126"/>
  <outline>
    <contour>
      <point x="645" y="0" type="line"/>
      <point x="-645" y="0" type="line"/>
      <point x="-645" y="145" type="line"/>
      <point x="645" y="145" type="line"/>
    </contour>
    <contour>
      <point x="550" y="1268" type="line"/>
      <point x="-245" y="826" type="line"/>
      <point x="550" y="387" type="line"/>
      <point x="462" y="267" type="line"/>
      <point x="-560" y="828" type="line"/>
      <point x="462" y="1389" type="line"/>
    </contour>
  </outline>
</glyph>
<glyph name="less_equal_less.liga" format="2">
  <advance width="1126"/>
  <outline>
    <contour>
      <point x="-1052" y="94" type="line"/>
      <point x="-1161" y="-16" type="line"/>
      <point x="-1833" y="545" type="line"/>
      <point x="-1161" y="1106" type="line"/>
      <point x="-1052" y="995" type="line"/>
      <point x="-1298" y="793" type="line"/>
      <point x="152" y="793" type="line"/>
      <point x="527" y="1106" type="line"/>
      <point x="636" y="995" type="line"/>
      <point x="91" y="547" type="line"/>
      <point x="636" y="94" type="line"/>
      <point x="527" y="-16" type="line"/>
      <point x="151" y="298" type="line"/>
      <point x="-1297" y="298" type="line"/>
    </contour>
    <contour>
      <point x="-24" y="646" type="line"/>
      <point x="-1477" y="646" type="line"/>
      <point x="-1597" y="547" type="line"/>
      <point x="-1474" y="445" type="line"/>
      <point x="-25" y="445" type="line"/>
      <point x="-145" y="545" type="line"/>
    </contour>
  </outline>
</glyph>
<glyph name="less_hyphen_hyphen.liga" format="2">
  <advance width="1126"/>
  <outline>
    <contour>
      <point x="-1052" y="94" type="line"/>
      <point x="-1161" y="-16" type="line"/>
      <point x="-1833" y="545" type="line"/>
      <point x="-1161" y="1106" type="line"/>
      <point x="-1052" y="995" type="line"/>
      <point x="-1500" y="627" type="line"/>
      <point x="580" y="627" type="line"/>
      <point x="580" y="463" type="line"/>
      <point x="-1496" y="463" type="line"/>
    </contour>
  </outline>
</glyph>
<glyph name="less_less.liga" format="2">
  <advance width="1126"/>
  <outline>
    <contour>
      <point x="125" y="985" type="line"/>
      <point x="-670" y="543" type="line"/>
      <point x="125" y="104" type="line"/>
      <point x="37" y="-16" type="line"/>
      <point x="-985" y="545" type="line"/>
      <point x="37" y="1106" type="line"/>
    </contour>
    <contour>
      <point x="969" y="985" type="line"/>
      <point x="174" y="543" type="line"/>
      <point x="969" y="104" type="line"/>
      <point x="881" y="-16" type="line"/>
      <point x="-141" y="545" type="line"/>
      <point x="881" y="1106" type="line"/>
    </contour>
  </outline>
</glyph>
<glyph name="less_plus_greater.liga" format="2">
  <advance width="1126"/>
  <outline>
    <contour>
      <point x="-84" y="469" type="line"/>
      <point x="-477" y="469" type="line"/>
      <point x="-477" y="61" type="line"/>
      <point x="-649" y="61" type="line"/>
      <point x="-649" y="469" type="line"/>
      <point x="-1042" y="469" type="line"/>
      <point x="-1042" y="621" type="line"/>
      <point x="-649" y="621" type="line"/>
      <point x="-649" y="1026" type="line"/>
      <point x="-477" y="1026" type="line"/>
      <point x="-477" y="621" type="line"/>
      <point x="-84" y="621" type="line"/>
    </contour>
    <contour>
      <point x="-860" y="985" type="line"/>
      <point x="-1655" y="543" type="line"/>
      <point x="-860" y="104" type="line"/>
      <point x="-948" y="-16" type="line"/>
      <point x="-1970" y="545" type="line"/>
      <point x="-948" y="1106" type="line"/>
    </contour>
    <contour>
      <point x="-266" y="985" type="line"/>
      <point x="-178" y="1106" type="line"/>
      <point x="844" y="545" type="line"/>
      <point x="-178" y="-16" type="line"/>
      <point x="-266" y="104" type="line"/>
      <point x="529" y="543" type="line"/>
    </contour>
  </outline>
</glyph>
<glyph name="less_slash.liga" format="2">
  <advance width="1126"/>
  <outline>
    <contour>
      <point x="826" y="1413" type="line"/>
      <point x="140" y="-215" type="line"/>
      <point x="-26" y="-215" type="line"/>
      <point x="-848" y="545" type="line"/>
      <point x="-176" y="1106" type="line"/>
      <point x="-67" y="995" type="line"/>
      <point x="-595" y="558" type="line"/>
      <point x="40" y="-56" type="line"/>
      <point x="660" y="1413" type="line"/>
    </contour>
  </outline>
</glyph>
<glyph name="nineinferior" format="2">
  <advance width="1126"/>
  <outline>
    <contour>
      <point x="559" y="799" type="curve" smooth="yes"/>
      <point x="790" y="799"/>
      <point x="883" y="675"/>
      <point x="883" y="440" type="curve" smooth="yes"/>
      <point x="883" y="197"/>
      <point x="787" y="53"/>
      <point x="589" y="16" type="curve" smooth="yes"/>
      <point x="533" y="6"/>
      <point x="475" y="0"/>
      <point x="416" y="0" type="curve" smooth="yes"/>
      <point x="291" y="0" type="line"/>
      <point x="291" y="143" type="line"/>
      <point x="436" y="143" type="line" smooth="yes"/>
      <point x="588" y="143"/>
      <point x="680" y="176"/>
      <point x="696" y="309" type="curve"/>
      <point x="698" y="317" type="line"/>
      <point x="652" y="302"/>
      <point x="590" y="295"/>
      <point x="530" y="295" type="curve" smooth="yes"/>
      <point x="354" y="295"/>
      <point x="233" y="359"/>
      <point x="233" y="537" type="curve" smooth="yes"/>
      <point x="233" y="673"/>
      <point x="322" y="749"/>
      <point x="428" y="781" type="curve" smooth="yes"/>
      <point x="468" y="793"/>
      <point x="512" y="799"/>
    </contour>
    <contour>
      <point x="702" y="463" type="curve"/>
      <point x="702" y="579"/>
      <point x="667" y="657"/>
      <point x="551" y="657" type="curve" smooth="yes"/>
      <point x="470" y="657"/>
      <point x="408" y="618"/>
      <point x="408" y="543" type="curve" smooth="yes"/>
      <point x="408" y="461"/>
      <point x="472" y="436"/>
      <point x="555" y="436" type="curve" smooth="yes"/>
      <point x="605" y="436"/>
      <point x="669" y="443"/>
    </contour>
  </outline>
</glyph>
<glyph name="ninesuperior" format="2">
  <advance width="1126"/>
  <outline>
    <contour>
      <point x="559" y="1430" type="curve" smooth="yes"/>
      <point x="790" y="1430"/>
      <point x="883" y="1306"/>
      <point x="883" y="1071" type="curve" smooth="yes"/>
      <point x="883" y="828"/>
      <point x="787" y="683"/>
      <point x="589" y="646" type="curve" smooth="yes"/>
      <point x="533" y="636"/>
      <point x="475" y="631"/>
      <point x="416" y="631" type="curve" smooth="yes"/>
      <point x="291" y="631" type="line"/>
      <point x="291" y="774" type="line"/>
      <point x="436" y="774" type="line" smooth="yes"/>
      <point x="588" y="774"/>
      <point x="680" y="807"/>
      <point x="696" y="940" type="curve"/>
      <point x="698" y="948" type="line"/>
      <point x="652" y="933"/>
      <point x="590" y="926"/>
      <point x="530" y="926" type="curve" smooth="yes"/>
      <point x="354" y="926"/>
      <point x="233" y="990"/>
      <point x="233" y="1168" type="curve" smooth="yes"/>
      <point x="233" y="1304"/>
      <point x="322" y="1380"/>
      <point x="428" y="1412" type="curve" smooth="yes"/>
      <point x="468" y="1424"/>
      <point x="512" y="1430"/>
    </contour>
    <contour>
      <point x="702" y="1094" type="curve"/>
      <point x="702" y="1210"/>
      <point x="667" y="1288"/>
      <point x="551" y="1288" type="curve" smooth="yes"/>
      <point x="470" y="1288"/>
      <point x="408" y="1249"/>
      <point x="408" y="1174" type="curve" smooth="yes"/>
      <point x="408" y="1092"/>
      <point x="472" y="1067"/>
      <point x="555" y="1067" type="curve" smooth="yes"/>
      <point x="605" y="1067"/>
      <point x="669" y="1074"/>
    </contour>
  </outline>
</glyph>
<glyph name="numbersign_braceleft.liga" format="2">
  <advance width="1126"/>
  <outline>
    <contour>
      <point x="301" y="1083" type="line" smooth="yes"/>
      <point x="301" y="1333"/>
      <point x="429" y="1448"/>
      <point x="682" y="1448" type="curve" smooth="yes"/>
      <point x="756" y="1448" type="line"/>
      <point x="756" y="1308" type="line"/>
      <point x="697" y="1308" type="line" smooth="yes"/>
      <point x="542" y="1308"/>
      <point x="465" y="1233"/>
      <point x="465" y="1083" type="curve" smooth="yes"/>
      <point x="465" y="702" type="line" smooth="yes"/>
      <point x="465" y="539"/>
      <point x="395" y="453"/>
      <point x="254" y="432" type="curve"/>
      <point x="396" y="432"/>
      <point x="467" y="331"/>
      <point x="467" y="162" type="curve" smooth="yes"/>
      <point x="467" y="-41" type="line" smooth="yes"/>
      <point x="467" y="-194"/>
      <point x="544" y="-270"/>
      <point x="697" y="-270" type="curve" smooth="yes"/>
      <point x="756" y="-270" type="line"/>
      <point x="756" y="-410" type="line"/>
      <point x="682" y="-410" type="line" smooth="yes"/>
      <point x="429" y="-410"/>
      <point x="301" y="-295"/>
      <point x="301" y="-45" type="curve" smooth="yes"/>
      <point x="301" y="160" type="line" smooth="yes"/>
      <point x="301" y="313"/>
      <point x="220" y="367"/>
      <point x="64" y="367" type="curve" smooth="yes"/>
      <point x="-178" y="367" type="line"/>
      <point x="-215" y="0" type="line"/>
      <point x="-363" y="0" type="line"/>
      <point x="-326" y="367" type="line"/>
      <point x="-581" y="367" type="line"/>
      <point x="-618" y="0" type="line"/>
      <point x="-766" y="0" type="line"/>
      <point x="-729" y="367" type="line"/>
      <point x="-942" y="367" type="line"/>
      <point x="-942" y="497" type="line"/>
      <point x="-716" y="497" type="line"/>
      <point x="-680" y="847" type="line"/>
      <point x="-891" y="847" type="line"/>
      <point x="-891" y="977" type="line"/>
      <point x="-667" y="977" type="line"/>
      <point x="-633" y="1308" type="line"/>
      <point x="-487" y="1308" type="line"/>
      <point x="-520" y="977" type="line"/>
      <point x="-264" y="977" type="line"/>
      <point x="-230" y="1308" type="line"/>
      <point x="-82" y="1308" type="line"/>
      <point x="-117" y="977" type="line"/>
      <point x="301" y="977" type="line"/>
    </contour>
    <contour>
      <point x="-312" y="497" type="line"/>
      <point x="-277" y="847" type="line"/>
      <point x="-533" y="847" type="line"/>
      <point x="-568" y="497" type="line"/>
    </contour>
    <contour>
      <point x="301" y="847" type="line"/>
      <point x="-130" y="847" type="line"/>
      <point x="-165" y="497" type="line"/>
      <point x="64" y="497" type="line" smooth="yes"/>
      <point x="183" y="497"/>
      <point x="267" y="518"/>
      <point x="291" y="608" type="curve" smooth="yes"/>
      <point x="298" y="633"/>
      <point x="301" y="663"/>
      <point x="301" y="698" type="curve" smooth="yes"/>
    </contour>
  </outline>
</glyph>
<glyph name="one.numr" format="2">
  <advance width="1126"/>
  <outline>
    <contour>
      <point x="879" y="631" type="line"/>
      <point x="266" y="631" type="line"/>
      <point x="266" y="776" type="line"/>
      <point x="504" y="776" type="line"/>
      <point x="504" y="1243" type="line"/>
      <point x="285" y="1135" type="line"/>
      <point x="227" y="1266" type="line"/>
      <point x="539" y="1422" type="line"/>
      <point x="678" y="1422" type="line"/>
      <point x="678" y="776" type="line"/>
      <point x="879" y="776" type="line"/>
    </contour>
  </outline>
</glyph>
<glyph name="semicolon_semicolon.liga" format="2">
  <advance width="1126"/>
  <outline>
    <contour>
      <point x="279" y="193" type="curve" smooth="yes"/>
      <point x="279" y="270"/>
      <point x="335" y="322"/>
      <point x="414" y="322" type="curve" smooth="yes"/>
      <point x="539" y="322"/>
      <point x="592" y="211"/>
      <point x="592" y="82" type="curve" smooth="yes"/>
      <point x="592" y="-121"/>
      <point x="472" y="-248"/>
      <point x="320" y="-307" type="curve" smooth="yes"/>
      <point x="260" y="-330"/>
      <point x="189" y="-342"/>
      <point x="109" y="-342" type="curve"/>
      <point x="109" y="-205" type="line"/>
      <point x="114.394" y="-205.202"/>
      <point x="119.75" y="-205.302"/>
      <point x="125.064" y="-205.302" type="curve" smooth="yes"/>
      <point x="225.151" y="-205.302"/>
      <point x="310.168" y="-169.824"/>
      <point x="351" y="-110" type="curve" smooth="yes"/>
      <point x="366" y="-89"/>
      <point x="373" y="-64"/>
      <point x="373" y="-37" type="curve" smooth="yes"/>
      <point x="373" y="74"/>
      <point x="279" y="83"/>
    </contour>
    <contour>
      <point x="422" y="1022" type="curve" smooth="yes"/>
      <point x="493" y="1022"/>
      <point x="542" y="977"/>
      <point x="564" y="927" type="curve" smooth="yes"/>
      <point x="572" y="908"/>
      <point x="576" y="889"/>
      <point x="576" y="868" type="curve" smooth="yes"/>
      <point x="576" y="781"/>
      <point x="509" y="715"/>
      <point x="422" y="715" type="curve" smooth="yes"/>
      <point x="334" y="715"/>
      <point x="269" y="781"/>
      <point x="269" y="868" type="curve" smooth="yes"/>
      <point x="269" y="939"/>
      <point x="312" y="987"/>
      <point x="362" y="1010" type="curve" smooth="yes"/>
      <point x="380" y="1018"/>
      <point x="401" y="1022"/>
    </contour>
    <contour>
      <point x="-565" y="193" type="curve" smooth="yes"/>
      <point x="-565" y="270"/>
      <point x="-509" y="322"/>
      <point x="-430" y="322" type="curve" smooth="yes"/>
      <point x="-305" y="322"/>
      <point x="-252" y="211"/>
      <point x="-252" y="82" type="curve" smooth="yes"/>
      <point x="-252" y="-121"/>
      <point x="-372" y="-248"/>
      <point x="-524" y="-307" type="curve" smooth="yes"/>
      <point x="-584" y="-330"/>
      <point x="-655" y="-342"/>
      <point x="-735" y="-342" type="curve"/>
      <point x="-735" y="-205" type="line"/>
      <point x="-729.606" y="-205.202"/>
      <point x="-724.25" y="-205.302"/>
      <point x="-718.936" y="-205.302" type="curve" smooth="yes"/>
      <point x="-618.849" y="-205.302"/>
      <point x="-533.832" y="-169.824"/>
      <point x="-493" y="-110" type="curve" smooth="yes"/>
      <point x="-478" y="-89"/>
      <point x="-471" y="-64"/>
      <point x="-471" y="-37" type="curve" smooth="yes"/>
      <point x="-471" y="74"/>
      <point x="-565" y="83"/>
    </contour>
    <contour>
      <point x="-422" y="1022" type="curve" smooth="yes"/>
      <point x="-351" y="1022"/>
      <point x="-302" y="977"/>
      <point x="-280" y="927" type="curve" smooth="yes"/>
      <point x="-272" y="908"/>
      <point x="-268" y="889"/>
      <point x="-268" y="868" type="curve" smooth="yes"/>
      <point x="-268" y="781"/>
      <point x="-335" y="715"/>
      <point x="-422" y="715" type="curve" smooth="yes"/>
      <point x="-510" y="715"/>
      <point x="-575" y="781"/>
      <point x="-575" y="868" type="curve" smooth="yes"/>
      <point x="-575" y="939"/>
      <point x="-532" y="987"/>
      <point x="-482" y="1010" type="curve" smooth="yes"/>
      <point x="-464" y="1018"/>
      <point x="-443" y="1022"/>
    </contour>
  </outline>
</glyph>
<glyph name="slash_slash.liga" format="2">
  <advance width="1126"/>
  <outline>
    <contour>
      <point x="826" y="1413" type="line"/>
      <point x="140" y="-215" type="line"/>
      <point x="-26" y="-215" type="line"/>
      <point x="660" y="1413" type="line"/>
    </contour>
    <contour>
      <point x="-18" y="1413" type="line"/>
      <point x="-704" y="-215" type="line"/>
      <point x="-870" y="-215" type="line"/>
      <point x="-184" y="1413" type="line"/>
    </contour>
  </outline>
</glyph>
<glyph name="threesuperior" format="2">
  <advance width="1126"/>
  <outline>
    <contour>
      <point x="696" y="1049" type="curve"/>
      <point x="786" y="1025"/>
      <point x="862" y="981"/>
      <point x="862" y="869" type="curve" smooth="yes"/>
      <point x="862" y="730"/>
      <point x="759" y="664"/>
      <point x="642" y="634" type="curve" smooth="yes"/>
      <point x="593" y="622"/>
      <point x="537" y="615"/>
      <point x="473" y="615" type="curve" smooth="yes"/>
      <point x="403" y="615"/>
      <point x="330" y="617"/>
      <point x="274" y="631" type="curve"/>
      <point x="274" y="771" type="line"/>
      <point x="326" y="759"/>
      <point x="410" y="755"/>
      <point x="479" y="755" type="curve" smooth="yes"/>
      <point x="574" y="755"/>
      <point x="678" y="780"/>
      <point x="678" y="864" type="curve" smooth="yes"/>
      <point x="678" y="957"/>
      <point x="574" y="969"/>
      <point x="475" y="969" type="curve" smooth="yes"/>
      <point x="393" y="969" type="line"/>
      <point x="393" y="1098" type="line"/>
      <point x="469" y="1098" type="line" smooth="yes"/>
      <point x="559" y="1098"/>
      <point x="641" y="1119"/>
      <point x="641" y="1204" type="curve" smooth="yes"/>
      <point x="641" y="1275"/>
      <point x="574" y="1290"/>
      <point x="500" y="1290" type="curve" smooth="yes"/>
      <point x="427" y="1290"/>
      <point x="348" y="1276"/>
      <point x="291" y="1258" type="curve"/>
      <point x="291" y="1399" type="line"/>
      <point x="359" y="1419"/>
      <point x="446" y="1430"/>
      <point x="532" y="1430" type="curve" smooth="yes"/>
      <point x="694" y="1430"/>
      <point x="821" y="1378"/>
      <point x="821" y="1235" type="curve" smooth="yes"/>
      <point x="821" y="1134"/>
      <point x="769" y="1081"/>
    </contour>
  </outline>
</glyph>
<glyph name="w_w_w.liga" format="2">
  <advance width="1126"/>
  <outline>
    <contour>
      <point x="815" y="1307" type="line"/>
      <point x="727" y="0" type="line"/>
      <point x="496" y="0" type="line"/>
      <point x="334" y="465" type="line"/>
      <point x="289" y="614" type="line"/>
      <point x="230" y="403"/>
      <point x="158" y="204"/>
      <point x="92" y="0" type="curve"/>
      <point x="-131" y="0" type="line"/>
      <point x="-149" y="230" type="line"/>
      <point x="-182" y="0" type="line"/>
      <point x="-393" y="0" type="line"/>
      <point x="-538" y="420" type="line"/>
      <point x="-567" y="522" type="line"/>
      <point x="-620" y="344"/>
      <point x="-682" y="174"/>
      <point x="-739" y="0" type="curve"/>
      <point x="-944" y="0" type="line"/>
      <point x="-981" y="255" type="line"/>
      <point x="-1002" y="0" type="line"/>
      <point x="-1233" y="0" type="line"/>
      <point x="-1395" y="465" type="line"/>
      <point x="-1440" y="614" type="line"/>
      <point x="-1499" y="403"/>
      <point x="-1571" y="204"/>
      <point x="-1637" y="0" type="curve"/>
      <point x="-1860" y="0" type="line"/>
      <point x="-1950" y="1307" type="line"/>
      <point x="-1782" y="1307" type="line"/>
      <point x="-1731" y="418" type="line"/>
      <point x="-1716" y="174" type="line"/>
      <point x="-1647" y="409"/>
      <point x="-1569" y="636"/>
      <point x="-1495" y="866" type="curve"/>
      <point x="-1372" y="866" type="line"/>
      <point x="-1291" y="635"/>
      <point x="-1211" y="404"/>
      <point x="-1129" y="174" type="curve"/>
      <point x="-1125" y="354" type="line"/>
      <point x="-1089" y="1004" type="line"/>
      <point x="-919" y="1004" type="line"/>
      <point x="-885" y="726"/>
      <point x="-850" y="449"/>
      <point x="-817" y="170" type="curve"/>
      <point x="-754" y="365"/>
      <point x="-691" y="559"/>
      <point x="-628" y="754" type="curve"/>
      <point x="-503" y="754" type="line"/>
      <point x="-436" y="561"/>
      <point x="-366" y="371"/>
      <point x="-301" y="176" type="curve"/>
      <point x="-272" y="454"/>
      <point x="-239" y="728"/>
      <point x="-208" y="1004" type="curve"/>
      <point x="-36" y="1004" type="line"/>
      <point x="-20" y="727"/>
      <point x="-4" y="450"/>
      <point x="13" y="174" type="curve"/>
      <point x="82" y="409"/>
      <point x="160" y="636"/>
      <point x="234" y="866" type="curve"/>
      <point x="357" y="866" type="line"/>
      <point x="438" y="635"/>
      <point x="518" y="404"/>
      <point x="600" y="174" type="curve"/>
      <point x="604" y="354" type="line"/>
      <point x="656" y="1307" type="line"/>
    </contour>
  </outline>
</glyph>
